<svg width="66" height="66" viewBox="0 0 66 66" fill="none" xmlns="http://www.w3.org/2000/svg">
<path d="M55.8744 10.9506L33.9732 3.48691C33.709 3.39668 33.3545 3.35156 33 3.35156C32.6455 3.35156 32.291 3.39668 32.0268 3.48691L10.1256 10.9506C9.59063 11.1311 9.15234 11.7498 9.15234 12.317V43.4092C9.15234 43.9764 9.51973 44.724 9.96445 45.0785L32.1814 62.3906C32.407 62.5646 32.6971 62.6549 32.9936 62.6549C33.29 62.6549 33.5865 62.5646 33.8057 62.3906L56.0227 45.0785C56.4674 44.7305 56.8348 43.9828 56.8348 43.4092V12.317C56.8476 11.7498 56.4094 11.1375 55.8744 10.9506ZM52.207 42.1717L33 57.1377L13.793 42.1717V14.6115L33 8.06309L52.207 14.6115V42.1717ZM26.052 29.2166C25.8586 28.9523 25.5492 28.7912 25.2141 28.7912H21.6562C21.2373 28.7912 20.9924 29.2682 21.2373 29.6098L29.3842 40.8246C29.4805 40.9565 29.6066 41.0637 29.7522 41.1377C29.8978 41.2116 30.0588 41.2501 30.2221 41.2501C30.3854 41.2501 30.5463 41.2116 30.6919 41.1377C30.8375 41.0637 30.9636 40.9565 31.06 40.8246L44.7627 21.9592C45.0076 21.6176 44.7627 21.1406 44.3437 21.1406H40.7859C40.4572 21.1406 40.1414 21.3018 39.948 21.566L30.2221 34.9594L26.052 29.2166Z" fill="#F15C05"/>
</svg>
