<svg xmlns="http://www.w3.org/2000/svg" width="24.004" height="24" viewBox="0 0 24.004 24">
  <path id="bilgilerim-ayarlarim" d="M15.846,2.893a2.712,2.712,0,0,1,4.719,1.956l-.072,1.4a1.211,1.211,0,0,0,1.147,1.268h.12l1.4-.072a2.712,2.712,0,0,1,1.951,4.72l-1.043.94a1.214,1.214,0,0,0-.087,1.711c.029.03.057.059.087.086l1.043.941a2.71,2.71,0,0,1-1.956,4.717l-1.4-.071a1.21,1.21,0,0,0-1.27,1.145v.125l.072,1.406a2.711,2.711,0,0,1-4.711,1.947L14.9,24.07a1.21,1.21,0,0,0-1.709-.087,1.232,1.232,0,0,0-.089.089l-.946,1.042a2.711,2.711,0,0,1-4.713-1.951l.072-1.4a1.21,1.21,0,0,0-1.145-1.27H6.251l-1.4.072a2.71,2.71,0,0,1-1.959-4.716l1.042-.941A1.21,1.21,0,0,0,4.02,13.2a.985.985,0,0,0-.089-.089L2.89,12.162A2.709,2.709,0,0,1,4.843,7.45l1.4.071A1.208,1.208,0,0,0,7.516,6.378V6.245l-.068-1.4a2.709,2.709,0,0,1,4.713-1.95l.943,1.04a1.21,1.21,0,0,0,1.706.089c.03-.029.06-.057.09-.092Zm2.693.818a1.21,1.21,0,0,0-1.58.191L15.916,5.039l-.1.1a2.708,2.708,0,0,1-3.824-.2L11.05,3.9a1.209,1.209,0,0,0-2.1.87l.066,1.4a2.307,2.307,0,0,1,0,.288A2.709,2.709,0,0,1,6.168,9.02l-1.4-.071a1.209,1.209,0,0,0-.87,2.1L4.94,12l.2.194a2.714,2.714,0,0,1-.2,3.83l-1.042.94a1.208,1.208,0,0,0,.875,2.1l1.4-.071q.14-.007.279,0A2.711,2.711,0,0,1,9.02,21.837l-.072,1.4a1.21,1.21,0,0,0,2.1.87l.944-1.04a2.393,2.393,0,0,1,.2-.2,2.709,2.709,0,0,1,3.827.2l.94,1.037a1.21,1.21,0,0,0,2.1-.866l-.072-1.4c0-.093,0-.186,0-.278a2.709,2.709,0,0,1,2.846-2.566l1.4.071a1.21,1.21,0,0,0,.873-2.106l-1.043-.941a2.394,2.394,0,0,1-.2-.2,2.711,2.711,0,0,1,.2-3.829L24.1,11.05a1.209,1.209,0,0,0-.869-2.106l-1.4.072c-.09,0-.18,0-.269,0a2.71,2.71,0,0,1-2.569-2.844l.071-1.4a1.21,1.21,0,0,0-.4-.959Zm-.822,6.578a5.253,5.253,0,1,1-7.429,0A5.253,5.253,0,0,1,17.716,10.289ZM11.347,11.35a3.753,3.753,0,1,0,5.49.2l-.183-.2-.2-.183a3.755,3.755,0,0,0-5.112.183Z" transform="translate(-2 -2)" fill="#23252e"/>
</svg>
