<svg width="70" height="70" viewBox="0 0 70 70" fill="none" xmlns="http://www.w3.org/2000/svg">
<path d="M31.5 15.75C28.8785 15.75 26.453 16.5725 24.458 17.9725C24.3285 15.967 23.87 14.2275 23.0265 12.6875C25.6907 11.2131 28.6936 10.4594 31.7384 10.5009C34.7831 10.5424 37.7643 11.3776 40.3875 12.924C43.0106 14.4705 45.1848 16.6746 46.6952 19.3186C48.2057 21.9626 49.0001 24.955 49 28H56.8785C60.2595 27.9965 63.0035 30.7405 63.0035 34.1215V53.3715C63.0039 54.1764 62.8457 54.9736 62.5379 55.7173C62.2301 56.4611 61.7787 57.1369 61.2095 57.706C60.6403 58.2752 59.9645 58.7266 59.2208 59.0344C58.477 59.3423 57.6799 59.5005 56.875 59.5H37.625C36.0005 59.5 34.4426 58.8547 33.2939 57.706C32.1453 56.5574 31.5 54.9995 31.5 53.375V45.5C29.0653 45.5031 26.657 44.9964 24.43 44.0125C24.4755 42.8225 24.5 41.573 24.5 40.25V40.033C24.5 39.4485 24.5 38.7765 24.4895 38.0485C26.4775 39.4345 28.8925 40.25 31.5 40.25V34.125C31.5 30.744 34.244 28 37.625 28H43.75C43.75 24.7511 42.4593 21.6353 40.162 19.338C37.8647 17.0406 34.7489 15.75 31.5 15.75ZM48.1985 33.25C47.3502 35.9376 45.8668 38.3812 43.874 40.3741C41.8812 42.3669 39.4375 43.8502 36.75 44.6985V53.375C36.75 53.858 37.142 54.25 37.625 54.25H56.875C57.107 54.25 57.3296 54.1578 57.4937 53.9937C57.6578 53.8296 57.75 53.6071 57.75 53.375V34.125C57.75 33.8929 57.6578 33.6704 57.4937 33.5063C57.3296 33.3422 57.107 33.25 56.875 33.25H48.1985ZM42.5705 33.25H37.625C37.3929 33.25 37.1703 33.3422 37.0062 33.5063C36.8421 33.6704 36.75 33.8929 36.75 34.125V39.0705C39.3009 37.8562 41.3562 35.8009 42.5705 33.25Z" fill="#F15C05"/>
<path d="M16.03 8.43736C16.3211 8.69102 16.5201 9.03384 16.5961 9.4124C16.6721 9.79097 16.6207 10.184 16.45 10.5304C16.4204 10.6328 16.4051 10.7388 16.4045 10.8454C16.4045 11.0659 16.4605 11.4859 16.989 12.0109C17.2445 12.2664 17.4405 12.4484 17.654 12.6479C17.829 12.8089 18.0145 12.9769 18.249 13.2079C18.704 13.6419 19.1835 14.1529 19.614 14.7934C20.5065 16.1339 21 17.8104 21 20.2499C21 23.2354 19.894 25.7799 18.1685 27.3409L18.3925 27.5999C19.3725 28.8039 19.943 30.3649 20.3 31.9049C21 34.9499 21 38.6109 21 41.1624V41.2499C21 51.0044 19.6735 56.5378 18.214 59.7018C17.479 61.2943 16.6985 62.3093 16.023 62.9463C15.7484 63.2098 15.4455 63.4422 15.12 63.6393C14.9709 63.7291 14.8153 63.8075 14.6545 63.8739C14.6545 63.8739 14.259 63.9998 14 63.9998C13.741 63.9998 13.3455 63.8739 13.3455 63.8739C13.1829 63.8114 13.027 63.7328 12.88 63.6393C12.5545 63.4422 12.2516 63.2098 11.977 62.9463C11.3015 62.3058 10.521 61.2943 9.786 59.7018C8.3265 56.5378 7 51.0044 7 41.2499V41.1624C7 38.6074 7 34.9499 7.7 31.9049C8.057 30.3649 8.6275 28.8039 9.6075 27.5999C9.6775 27.5124 9.7545 27.4249 9.8315 27.3409C8.106 25.7799 7 23.2354 7 20.2499C7 19.1089 7.3045 17.7474 7.7245 16.4909C8.1445 15.2309 8.7325 13.9289 9.4115 12.8789C10.22 11.5139 11.3575 10.3694 12.2395 9.59936C12.7231 9.1741 13.2277 8.77342 13.7515 8.39886L13.9055 8.29386C14.2264 8.07993 14.6091 7.97802 14.9939 8.00397C15.3787 8.02992 15.7442 8.18228 16.0335 8.43736H16.03Z" fill="#F15C05"/>
</svg>
