<svg width="70" height="70" viewBox="0 0 70 70" fill="none" xmlns="http://www.w3.org/2000/svg">
<path d="M19.6875 8.75C16.7867 8.75 14.0047 9.90234 11.9535 11.9535C9.90234 14.0047 8.75 16.7867 8.75 19.6875V50.3213C8.75 53.2221 9.90234 56.0041 11.9535 58.0552C14.0047 60.1064 16.7867 61.2588 19.6875 61.2588H30.6316C29.6124 59.9045 28.7542 58.4363 28.0744 56.8838H19.6875C17.947 56.8838 16.2778 56.1924 15.0471 54.9616C13.8164 53.7309 13.125 52.0617 13.125 50.3213V21.875H56.8838V28.0744C58.4363 28.7542 59.9045 29.6124 61.2588 30.6316V19.6875C61.2588 16.7867 60.1064 14.0047 58.0552 11.9535C56.0041 9.90234 53.2221 8.75 50.3213 8.75H19.6875ZM56.4987 17.5H13.4969C13.9497 16.2201 14.7882 15.1122 15.8969 14.3286C17.0056 13.5451 18.3299 13.1246 19.6875 13.125H50.3125C53.1672 13.125 55.5997 14.9516 56.4987 17.5ZM35.0066 30.6184V28.4309C35.0066 27.8508 34.7761 27.2944 34.3659 26.8841C33.9556 26.4739 33.3992 26.2434 32.8191 26.2434H19.7072C19.127 26.2434 18.5706 26.4739 18.1604 26.8841C17.7502 27.2944 17.5197 27.8508 17.5197 28.4309V50.3125C17.5197 50.8927 17.7502 51.4491 18.1604 51.8593C18.5706 52.2695 19.127 52.5 19.7072 52.5H26.6853C26.4009 51.0847 26.25 49.6213 26.25 48.125H21.8925V30.6206H30.6316V34.9891C31.8769 33.3336 33.3498 31.8622 35.0066 30.6184ZM36.4788 62.4969L36.5794 62.1556C36.915 61.0186 37.016 59.8253 36.8764 58.6481C36.7368 57.4709 36.3594 56.3343 35.7672 55.3073C35.1749 54.2804 34.3802 53.3845 33.4312 52.674C32.4822 51.9636 31.3987 51.4534 30.2466 51.1744C29.9743 49.1767 30.0275 47.1481 30.4041 45.1675C31.5451 44.8838 32.6172 44.373 33.5564 43.6657C34.4955 42.9584 35.2826 42.0691 35.8704 41.0508C36.4582 40.0326 36.8348 38.9063 36.9777 37.7393C37.1205 36.5723 37.0267 35.3884 36.7019 34.2584C38.2296 32.9422 39.9604 31.8821 41.8272 31.1194C42.6449 31.9777 43.6285 32.6609 44.7183 33.1275C45.8081 33.5941 46.9814 33.8344 48.1669 33.8338C49.3524 33.8332 50.5254 33.5917 51.6147 33.1239C52.704 32.6562 53.6869 31.972 54.5037 31.1128L54.7466 30.8547C56.5711 31.5341 58.2688 32.5145 59.7691 33.7553L59.6684 34.0944C59.3328 35.2314 59.2318 36.4247 59.3714 37.6019C59.511 38.7791 59.8884 39.9157 60.4806 40.9427C61.0729 41.9696 61.8676 42.8655 62.8166 43.576C63.7656 44.2864 64.8491 44.7966 66.0013 45.0756C66.2703 47.0444 66.2266 49.0744 65.8459 51.0847C64.7047 51.3682 63.6324 51.8788 62.693 52.586C61.7535 53.2932 60.9663 54.1825 60.3782 55.2007C59.7902 56.219 59.4134 57.3454 59.2704 58.5125C59.1274 59.6796 59.2211 60.8636 59.5459 61.9938C58.0183 63.3102 56.2875 64.3703 54.4206 65.1328C53.6029 64.2745 52.6193 63.5913 51.5295 63.1247C50.4397 62.6581 49.2664 62.4178 48.0809 62.4184C46.8954 62.419 45.7224 62.6605 44.6331 63.1283C43.5438 63.596 42.5609 64.2802 41.7441 65.1394L41.5013 65.3953C39.677 64.7163 37.9794 63.7366 36.4788 62.4969ZM45.6006 52.4978C47.9347 53.8453 50.9556 52.9791 52.3491 50.5641C53.7425 48.1513 52.9834 45.1019 50.6472 43.7544C48.3153 42.4069 45.2922 43.2731 43.8988 45.6859C42.5053 48.1009 43.2666 51.1503 45.6006 52.4978Z" fill="#F15C05"/>
</svg>
