<svg id="Group_545" data-name="Group 545" xmlns="http://www.w3.org/2000/svg" width="23.996" height="24" viewBox="0 0 23.996 24">
  <g id="Group_544" data-name="Group 544">
    <g id="Group_543" data-name="Group 543">
      <path id="Path_2923" data-name="Path 2923" d="M6.616,17.935a.811.811,0,0,1,.214,1.6l-.109.015a1.624,1.624,0,0,0-1.042.474,3.238,3.238,0,0,0-.444.735l-.079.168c-.2.43-.412.967-.634,1.582-.151.421-.3.864-.447,1.312l-.045.144.81-.265.646-.225.588-.22c.279-.108.537-.213.769-.315l.225-.1a3.908,3.908,0,0,0,.906-.525,1.611,1.611,0,0,0,.465-.987l.009-.159a.811.811,0,0,1,1.623,0,3.236,3.236,0,0,1-.951,2.3,4.814,4.814,0,0,1-1.371.85c-.48.222-1.057.451-1.713.688-.439.157-.9.315-1.363.465l-.876.273-.57.169-.195.055a.811.811,0,0,1-1-1l.279-.94c.216-.7.447-1.4.684-2.062s.466-1.236.69-1.714a4.793,4.793,0,0,1,.849-1.371,3.235,3.235,0,0,1,2.083-.945ZM25.095,2a.812.812,0,0,1,.9.9l-.259,2.334a8.923,8.923,0,0,1-2.56,5.326L16.93,16.8l.3.882A7.3,7.3,0,0,1,15.708,24.9l-.247.261-.25.249a1.586,1.586,0,0,1-.636.393,1.554,1.554,0,0,1-.342.075l-.171.009a1.62,1.62,0,0,1-1.537-1.11l-1.248-3.737L6.961,16.717,3.225,15.471A1.622,1.622,0,0,1,2.15,13.592l.048-.171a1.62,1.62,0,0,1,.393-.636l.25-.25a7.3,7.3,0,0,1,7.472-1.765l.883.292,6.239-6.238a8.92,8.92,0,0,1,4.924-2.5l.4-.054ZM15.649,18.087,13.962,19.77l-.064.063-.984.984,1.147,3.442.253-.25a5.68,5.68,0,0,0,1.371-5.813ZM24.266,3.731l-1.326.147a7.307,7.307,0,0,0-4.357,2.094l-6.59,6.587,0,.006L8.546,16.008l3.44,3.44L22.025,9.415a7.309,7.309,0,0,0,2.05-4.03l.045-.33Zm-16.1,8.288H7.834a5.689,5.689,0,0,0-3.845,1.663l-.252.25L7.18,15.078l2.733-2.733L9.8,12.308a5.727,5.727,0,0,0-1.638-.289Z" transform="translate(-2 -2)" fill="#23252e"/>
    </g>
  </g>
</svg>
