<svg xmlns="http://www.w3.org/2000/svg" width="72.208" height="72.02" viewBox="0 0 72.208 72.02">
  <path id="Gülücük" d="M334.111,400.824a7.008,7.008,0,0,1,5.266-2.029,7.771,7.771,0,0,1,5.167,1.926,6.588,6.588,0,0,1,2.273,4.938c0,2.928-1.524,5.714-3.809,8.427-.566.677-1.183,1.349-1.829,2.013a34.807,34.807,0,0,1-46.835,47.51c-1.72,1.769-3.654,3.491-5.585,5.213l-1.444,1.286-1.444-1.286a74.942,74.942,0,0,1-7.453-7.264c-2.285-2.714-3.809-5.5-3.809-8.429a6.584,6.584,0,0,1,2.273-4.936,7.548,7.548,0,0,1,1.966-1.26,34.816,34.816,0,0,1,44.932-46.3,7.781,7.781,0,0,1,5.067-1.838,7.2,7.2,0,0,1,4.384,1.286,7.13,7.13,0,0,1,.881.743ZM291.9,442.195c.048.06,16.463,21.018,36.833.648a2.174,2.174,0,1,0-3.075-3.075c-16.916,16.916-30.338-.224-30.376-.273a2.164,2.164,0,0,0-3.382,2.7Zm2.256-11.766c0-.012,0-4.616,3.463-4.616,3.262,0,2.863,4.356,2.862,4.369a2.167,2.167,0,0,0,4.316.391c0-.026.838-9.109-7.178-9.109-7.813,0-7.813,8.938-7.813,8.964a2.175,2.175,0,0,0,4.35,0Zm26.789,0c0-.012,0-4.616,3.465-4.616,3.262,0,2.863,4.356,2.862,4.369a2.166,2.166,0,1,0,4.315.391c0-.026.838-9.109-7.177-9.109-7.815,0-7.814,8.938-7.814,8.964a2.174,2.174,0,0,0,4.349,0Zm-37.57,15.926a6.728,6.728,0,0,1,3.054,1.2,7.254,7.254,0,0,1,.882.741,7.014,7.014,0,0,1,5.265-2.029,7.761,7.761,0,0,1,5.167,1.927,6.584,6.584,0,0,1,2.272,4.936,12.109,12.109,0,0,1-2.751,7.091,30.459,30.459,0,0,0,40.648-40.986c-.776.707-1.568,1.412-2.358,2.116l-1.444,1.287-1.445-1.287a74.753,74.753,0,0,1-7.451-7.264c-2.285-2.713-3.809-5.5-3.809-8.427a6.327,6.327,0,0,1,.12-1.237,30.46,30.46,0,0,0-38.148,41.932Zm7.332,4.732a5.868,5.868,0,0,0-1.5,1.932l-1.893,3.374-1.9-3.374a5.848,5.848,0,0,0-1.5-1.932,3.106,3.106,0,0,0-1.869-.471,3.419,3.419,0,0,0-2.277.821,2.281,2.281,0,0,0-.812,1.693c0,1.762,1.109,3.666,2.773,5.642a59.167,59.167,0,0,0,5.581,5.516,59.216,59.216,0,0,0,5.584-5.516c1.663-1.976,2.773-3.881,2.773-5.642a2.286,2.286,0,0,0-.812-1.693,3.42,3.42,0,0,0-2.279-.821,3.109,3.109,0,0,0-1.869.471Zm46.8-47.47a5.871,5.871,0,0,0-1.5,1.932l-1.9,3.376-1.893-3.376a5.869,5.869,0,0,0-1.5-1.932,3.109,3.109,0,0,0-1.869-.473,3.413,3.413,0,0,0-2.279.822,2.286,2.286,0,0,0-.812,1.693c0,1.762,1.109,3.666,2.773,5.642a59.193,59.193,0,0,0,5.582,5.515,59.215,59.215,0,0,0,5.584-5.515c1.662-1.976,2.773-3.881,2.773-5.642a2.286,2.286,0,0,0-.812-1.693,3.413,3.413,0,0,0-2.279-.822A3.109,3.109,0,0,0,337.508,403.617Z" transform="translate(-274.609 -398.088)" fill="#fff" fill-rule="evenodd"/>
</svg>
