<svg xmlns="http://www.w3.org/2000/svg" width="24" height="16.5" viewBox="0 0 24 16.5">
  <path id="hesap-hareketlerim" d="M25.25,9a.751.751,0,0,1,.738.615L26,9.75v9a2.25,2.25,0,0,1-2.034,2.239L23.75,21H7.25a.75.75,0,0,1-.135-1.488L7.25,19.5h16.5a.751.751,0,0,0,.738-.615l.012-.135v-9A.75.75,0,0,1,25.25,9Zm-4.5-4.5A2.251,2.251,0,0,1,23,6.75v9A2.251,2.251,0,0,1,20.75,18H4.25A2.251,2.251,0,0,1,2,15.75v-9A2.251,2.251,0,0,1,4.25,4.5Zm0,1.5H4.25a.75.75,0,0,0-.75.75v9a.75.75,0,0,0,.75.75h16.5a.75.75,0,0,0,.75-.75v-9A.75.75,0,0,0,20.75,6Zm-1.875,6.75.153.011a1.125,1.125,0,1,1-.306,0ZM15.152,8.6a3.75,3.75,0,1,1-5.3,0A3.752,3.752,0,0,1,15.152,8.6Zm-4.243,1.06a2.251,2.251,0,1,0,3.337.171l-.155-.171L13.92,9.5A2.253,2.253,0,0,0,10.909,9.658ZM6.125,7.5l.153.01a1.125,1.125,0,1,1-.306,0Z" transform="translate(-2 -4.5)" fill="#23252e"/>
</svg>
