<svg xmlns="http://www.w3.org/2000/svg" width="24" height="16.5" viewBox="0 0 24 16.5">
  <path id="indirimler" d="M23.63,5a2.375,2.375,0,0,1,2.358,2.135L26,7.357V10.3a.886.886,0,0,1-.889.884,2.063,2.063,0,1,0,0,4.125A.887.887,0,0,1,26,16.2v2.946A2.364,2.364,0,0,1,23.63,21.5H4.37a2.375,2.375,0,0,1-2.358-2.135L2,19.144V16.2a.886.886,0,0,1,.889-.883,2.063,2.063,0,1,0,0-4.125A.887.887,0,0,1,2,10.3V7.358A2.365,2.365,0,0,1,4.37,5Zm0,1.769H4.37a.59.59,0,0,0-.593.588V9.523l.06.015a3.835,3.835,0,0,1,2.895,3.471l.008.241a3.838,3.838,0,0,1-2.9,3.714l-.06.012v2.115l0,.122a.591.591,0,0,0,.588.519H23.63a.59.59,0,0,0,.593-.588l0-2.167-.058-.012a3.838,3.838,0,0,1-2.9-3.472l-.008-.241a3.838,3.838,0,0,1,2.9-3.714l.058-.015,0-2.114-.006-.12a.591.591,0,0,0-.588-.519ZM20.12,14.53a2.345,2.345,0,0,1,0,3.333,2.377,2.377,0,0,1-3.351,0,2.345,2.345,0,0,1,0-3.333A2.377,2.377,0,0,1,20.12,14.53ZM18.332,8.942a.881.881,0,0,1,.1,1.128l-.1.122-7.407,7.366a.893.893,0,0,1-1.257,0,.881.881,0,0,1-.1-1.128l.1-.122,7.407-7.366A.893.893,0,0,1,18.332,8.942Zm-.306,6.837a.586.586,0,0,0,0,.834.6.6,0,0,0,.837,0,.588.588,0,0,0,.077-.741l-.075-.093L18.77,15.7a.6.6,0,0,0-.744.075ZM11.972,8.638a2.348,2.348,0,0,1,0,3.333,2.379,2.379,0,0,1-3.352,0,2.348,2.348,0,0,1,0-3.333A2.379,2.379,0,0,1,11.972,8.638ZM9.878,9.887a.586.586,0,0,0,0,.834.6.6,0,0,0,.837,0,.586.586,0,0,0,.075-.741l-.075-.093-.093-.075a.594.594,0,0,0-.744.075Z" transform="translate(-2 -5)" fill="#23252e"/>
</svg>
