<svg id="koleksiyon-icon" xmlns="http://www.w3.org/2000/svg" width="24" height="24" viewBox="0 0 24 24">
  <path id="Shape" d="M22.1,12.9a6.5,6.5,0,1,1-9.192,0A6.5,6.5,0,0,1,22.1,12.9Zm-8.17,1.021a5.055,5.055,0,1,0,7.313.172l-.164-.172-.172-.164a5.056,5.056,0,0,0-6.978.164Zm3.574.325a.75.75,0,0,1,.743.648l.007.1v1.5a.25.25,0,0,0,.25.25H20a.75.75,0,0,1,0,1.5H18.5a.25.25,0,0,0-.25.25V20a.75.75,0,0,1-1.5,0V18.5a.25.25,0,0,0-.25-.25H15a.75.75,0,1,1,0-1.5h1.5a.25.25,0,0,0,.25-.25V15A.75.75,0,0,1,17.5,14.25ZM2.25,12a.75.75,0,0,1,0,1.5H.75a.75.75,0,1,1,0-1.5Zm6.5,0a.75.75,0,1,1,0,1.5H5.25a.75.75,0,0,1,0-1.5ZM2.25,6a.75.75,0,1,1,0,1.5H.75A.75.75,0,1,1,.75,6Zm17,0a.75.75,0,1,1,0,1.5h-14a.75.75,0,0,1,0-1.5Zm-17-6a.75.75,0,0,1,0,1.5H.75A.75.75,0,0,1,.75,0Zm17,0a.75.75,0,1,1,0,1.5h-14a.75.75,0,0,1,0-1.5Z" fill="#23252e"/>
</svg>
