<svg xmlns="http://www.w3.org/2000/svg" width="24" height="18" viewBox="0 0 24 18">
  <path id="kredi-kartlarim" d="M23.75,4A2.251,2.251,0,0,1,26,6.25v13.5A2.251,2.251,0,0,1,23.75,22H4.25A2.251,2.251,0,0,1,2,19.75V6.25A2.251,2.251,0,0,1,4.25,4Zm.75,6H3.5v9.75a.751.751,0,0,0,.615.738l.135.012h19.5a.75.75,0,0,0,.75-.75Zm-12,6a.75.75,0,0,1,.135,1.488L12.5,17.5H7.25a.75.75,0,0,1-.135-1.488L7.25,16Zm3-3a.75.75,0,0,1,.135,1.488L15.5,14.5H7.25a.75.75,0,0,1-.135-1.488L7.25,13Zm8.25-7.5H4.25a.75.75,0,0,0-.75.75V8.5h21V6.25a.751.751,0,0,0-.615-.738Z" transform="translate(-2 -4)" fill="#23252e"/>
</svg>
