<svg xmlns="http://www.w3.org/2000/svg" width="54" height="49.934" viewBox="0 0 54 49.934">
  <path id="Kulak" d="M220.392,292.35V270.584h20.069v17.285c0,9.247-1.111,15.969-3.352,20.094a28.09,28.09,0,0,1-13.934,12.555l-4.481-7.291a16.713,16.713,0,0,0,8.456-7.113c1.787-3.165,2.81-7.753,3.032-13.764Zm-32.224,0V270.584h20.06v17.285c0,9.247-1.1,15.969-3.343,20.094a28.111,28.111,0,0,1-13.942,12.555l-4.481-7.291a16.735,16.735,0,0,0,8.465-7.113c1.778-3.165,2.81-7.753,3.023-13.764Z" transform="translate(-186.461 -270.584)" fill="#fff" fill-rule="evenodd" opacity="0.3"/>
</svg>
