<svg width="70" height="70" viewBox="0 0 70 70" fill="none" xmlns="http://www.w3.org/2000/svg">
<path d="M27.7083 20.4167C30.1292 20.4167 32.0833 22.3708 32.0833 24.7917C32.0833 27.2125 30.1292 29.1667 27.7083 29.1667C25.2875 29.1667 23.3333 27.2125 23.3333 24.7917C23.3333 22.3708 25.2875 20.4167 27.7083 20.4167ZM42.2917 40.8333C44.7125 40.8333 46.6667 42.7875 46.6667 45.2083C46.6667 47.6292 44.7125 49.5833 42.2917 49.5833C39.8708 49.5833 37.9167 47.6292 37.9167 45.2083C37.9167 42.7875 39.8708 40.8333 42.2917 40.8333ZM24.5292 49.5833L20.4167 45.4708L45.4708 20.4167L49.5833 24.5292L24.5292 49.5833ZM54.3958 8.31252L56.175 19.5708L66.4125 24.7917L61.25 35L66.4417 45.2083L56.1167 50.4292L54.3375 61.6875L42.9917 59.9084L34.9125 67.9875L26.8042 59.7917L15.5458 61.6583L13.7375 50.3125L3.55835 45.1208L8.75002 34.9125L3.58752 24.7917L13.825 19.5125L15.6042 8.37085L26.8917 10.2083L35 2.0271L43.05 10.0917L54.3958 8.31252ZM58.625 27.3292L51.0417 23.3333L49.5833 14.9042L41.125 16.1292L35 10.2083L28.875 16.1292L20.4167 14.9042L18.9583 23.3333L11.375 27.3292L15.1667 35L11.375 42.6708L18.9583 46.6667L20.4167 55.0958L28.875 53.8708L35 59.7917L41.125 53.8708L49.5833 55.0958L51.0417 46.6667L58.625 42.6708L54.8333 35L58.625 27.3292Z" fill="#F15C05"/>
</svg>
