<svg xmlns="http://www.w3.org/2000/svg" width="24" height="16.5" viewBox="0 0 24 16.5">
  <path id="mesajlarim" d="M23.75,4.5A2.251,2.251,0,0,1,26,6.75v12A2.251,2.251,0,0,1,23.75,21H4.25A2.251,2.251,0,0,1,2,18.75v-12A2.251,2.251,0,0,1,4.25,4.5Zm.75,2.436L18.883,10.81,22.009,13.7a.75.75,0,0,1-.91,1.184l-.107-.083-3.375-3.117L15.793,12.94a3.152,3.152,0,0,1-3.364.14l-.221-.138-1.826-1.258L7.009,14.8a.75.75,0,0,1-1.109-1l.09-.1,3.126-2.889L3.5,6.938V18.75a.751.751,0,0,0,.615.738l.135.012h19.5a.75.75,0,0,0,.75-.75ZM23.216,6H4.783l8.277,5.707a1.657,1.657,0,0,0,1.707.1l.174-.1Z" transform="translate(-2 -4.5)" fill="#0f1419"/>
</svg>
