<svg xmlns="http://www.w3.org/2000/svg" width="76.523" height="75" viewBox="0 0 76.523 75">
  <path id="Path_1700" data-name="Path 1700" d="M244.439,532.584h7.723L276.445,517.1a2.633,2.633,0,0,1,3.524.651l4.274,5.749,7.033-4.485a2.631,2.631,0,0,1,3.524.653l9.954,13.385a9.617,9.617,0,0,1,3.812,2.344l.01.01a9.538,9.538,0,0,1,2.811,6.755v27.558a2.643,2.643,0,0,1-2.414,2.632l-11.982.007a9.663,9.663,0,1,1,0-19.326h9.117V542.16a4.288,4.288,0,0,0-1.254-3.032l-.01-.01a4.284,4.284,0,0,0-3.032-1.254H244.439a4.3,4.3,0,0,0-4.3,4.242V582.11a4.284,4.284,0,0,0,1.254,3.032l.01.01a4.284,4.284,0,0,0,3.032,1.254h57.372a4.284,4.284,0,0,0,3.032-1.254l.01-.01c1.4-1.406,1.254-2.747,1.254-4.56a2.64,2.64,0,0,1,5.28,0c0,3.43-.3,5.764-2.811,8.282l-.01.01a9.537,9.537,0,0,1-6.755,2.811H244.439a9.537,9.537,0,0,1-6.755-2.811l-.01-.01a9.537,9.537,0,0,1-2.811-6.755V542.16c0-3.757.209-7.55.209-11.3-.02-11.975,15.77-8.948,15.814-8.938a2.635,2.635,0,1,1-.991,5.175c-.025-.005-9.613-1.845-9.566,3.815V531c0,.007-.025.991-.057,2.543a9.472,9.472,0,0,1,4.167-.964Zm17.5,0h22.5l-7.237-9.735-15.265,9.735Zm29.061,0h6.849l-5.814-7.82-4.646,2.963L291,532.584Zm15.107,34.5v-8.769H296.99a4.384,4.384,0,0,0,0,8.769Z" transform="translate(-234.863 -516.687)" fill="#fff" fill-rule="evenodd"/>
</svg>
