<svg xmlns="http://www.w3.org/2000/svg" width="74.754" height="75" viewBox="0 0 74.754 75">
  <path id="Path_1695" data-name="Path 1695" d="M308.961,442.823a20.288,20.288,0,0,1,14.344,34.634,20.679,20.679,0,0,1-2.845,2.366,41.513,41.513,0,0,1,6.968,2.689,2.8,2.8,0,0,1-2.567,4.979c-.066-.034-23.676-12.519-39.948,6.936l-.024.029c-1.162,1.5-13.132,17.281-3.611,17.754l35.754,0a2.808,2.808,0,1,1,0,5.615H281.279v-.01l-.1,0c-20.6-.776-2.044-25.076-.708-26.792l.143-.185a34.919,34.919,0,0,1,16.413-11.32,20.246,20.246,0,0,1-2.4-2.055l-.011-.011a20.289,20.289,0,0,1,14.347-34.624Zm13.919,64.7h7.485v7.488a2.808,2.808,0,0,0,5.615,0v-7.488h7.488a2.808,2.808,0,1,0,0-5.615h-7.488v-7.488a2.808,2.808,0,0,0-5.615,0v7.488H322.88a2.808,2.808,0,1,0,0,5.615Zm-3.545-54.792a14.675,14.675,0,0,0-20.752,0h-.011a14.7,14.7,0,0,0,0,20.752l.011.01a14.7,14.7,0,0,0,20.752,0v-.01a14.676,14.676,0,0,0,0-20.752Z" transform="translate(-271.522 -442.823)" fill="#fff" fill-rule="evenodd"/>
</svg>
