<svg xmlns="http://www.w3.org/2000/svg" width="75.856" height="72.02" viewBox="0 0 75.856 72.02">
  <path id="Path_1676" data-name="Path 1676" d="M264.119,575.454c-1.231.464-2.518,1.954-3.46,2.388-.42-.25-.852-.621-1.277-.933s-.887-.621-1.33-.954c-.852-.64-1.88-1.716-3.063-1.137-.721.351-3.245,4.239-3.922,5.121l-2.848,3.91c-.753,1-1.236,2.046-.083,2.973.855.684,3.409,2.261,3.95,2.9-.249.984-.714,1.972-1.007,2.989-.416,1.43.316,1.044-3.843,1.044-3.243,0-3.023.4-3.023,3.774,0,1.79-.226,9.354.256,10.1.547.841,1.446.735,2.672.735,4.051,0,3.536-.372,3.915.961.293,1.028.767,2.065,1.032,3.063-1.146,1.037-2.585,1.871-3.837,2.825-1.8,1.367-.141,2.88.834,4.273.709,1.014,5.294,7.435,5.841,7.772,1.291.8,3.379-1.291,4.4-2.019.432-.307.885-.7,1.335-.963,1.086.513,2.16,1.894,3.455,2.388a24.718,24.718,0,0,1-.97,3.157c-.328,1.039-1.007,2.319-.21,3.24.432.5,2.1.885,2.936,1.155l6.248,2.04c3.6,1.141,3.843,1.545,4.913-1.883a29.063,29.063,0,0,1,1.053-3.109c1.448-.014,2.719.072,4.211-.014.351.975.656,2.014,1,3.06.4,1.192.494,2.331,1.511,2.677.836.286,2.483-.439,3.282-.7,1.758-.566,8.576-2.55,9.285-3.19.825-.744.2-2.245-.129-3.22-.337-1.007-.76-2.127-1.026-3.118a21.957,21.957,0,0,1,2.527-1.811c.358-.27.529-.462.857-.686,1.52.55,4.4,4.28,5.98,2.859a62.1,62.1,0,0,0,4.063-5.458c.612-.845,1.848-2.123,1.568-3.171a1.635,1.635,0,0,0-2.924-.471c-.326.485-3.472,4.954-4.021,5.513-.952-.36-2.7-2.113-3.88-2.707-1.2-.6-1.628-.159-2.305.5a19.588,19.588,0,0,1-3.8,2.774c-.67.393-1.587.755-1.6,1.7-.021,1.275,1.178,3.776,1.464,5.109l-7.749,2.522-1.455-4.495c-.626-1.6-2.908-.82-4.666-.792-2.714.042-4.079-.808-4.83.82-.42.908-1.2,3.954-1.55,4.437l-7.7-2.483c.219-1.18,1.522-4.056,1.481-5.019-.046-1.069-.831-1.3-1.568-1.744a20.394,20.394,0,0,1-3.779-2.79,1.874,1.874,0,0,0-2.319-.594,26.5,26.5,0,0,0-2.894,2.053,7.3,7.3,0,0,1-1.028.709c-.453-.5-4.511-6.017-4.779-6.613a10.7,10.7,0,0,0,1.79-1.254c3.432-2.594,2.986-1.7,1.6-5.522-.358-.979-.993-4.114-1.5-4.59-.813-.76-4.412-.383-5.744-.446l-.009-8.137c1.254-.06,4.957.266,5.721-.386.49-.418,1.148-3.608,1.506-4.585,1.289-3.516,1.892-3.162-1.515-5.543a16.774,16.774,0,0,0-1.843-1.289c.316-.686,4.292-6.091,4.781-6.622,2.467,1.34,4.1,4.213,6.195,2.217a23.042,23.042,0,0,1,3.774-2.795c.734-.451,1.515-.681,1.614-1.716.09-.938-1.275-3.94-1.481-5.1l7.7-2.495c.411.619,1.007,3.37,1.508,4.4.841,1.735,2.072.938,4.686.917,4.783-.039,4.155,1.2,5.555-3,.256-.771.522-1.534.744-2.312.628.1,7.578,2.4,7.754,2.561-2.372,7.6-2.109,4.559,3.017,8.735.282.229.665.527.885.734,1.561,1.467,2.072.871,4.28-.757a15.964,15.964,0,0,1,1.952-1.393c.956,1,2.813,4.072,3.993,5.442a1.532,1.532,0,0,0,1.619.767c1.021-.136,2-1.293.8-2.894-1.134-1.506-3.947-5.788-5.044-6.86a1.517,1.517,0,0,0-1.834-.143c-1.081.61-3.386,2.668-4.2,2.952-.547-.386-1.049-.845-1.621-1.25a10.642,10.642,0,0,0-1.755-1.125c.182-1.739,2.282-5.079,1.18-6.391-.517-.617-7.521-2.665-9.177-3.2-5-1.612-3.73-1.125-5.934,5l-4.264-.049c-.349-1.028-.672-2.046-1.012-3.074-.37-1.111-.5-2.326-1.548-2.64-.788-.238-2.511.487-3.282.732-1.742.554-8.585,2.545-9.248,3.229-1.178,1.213.993,4.834,1.176,6.393Zm12.135,27.317,3.412-9.327,3.522,9.334-6.934-.007Zm21.566-2.624.023-7.8a58.9,58.9,0,0,1,7.283.039,3.385,3.385,0,0,1,2.631,1.092c1.34,1.6,1.924,6.026-2.758,6.581a49.269,49.269,0,0,1-7.179.092Zm-22.76,6.079c-.594,1.346-2.079,6.116-2.608,6.714a2.047,2.047,0,0,1-2.3.423c-1.961-.818-1.028-2.619-.434-4.2l6.869-17.887c.58-1.529,1.323-2.936,3.49-2.688,1.9.217,2.3,1.693,2.94,3.247.605,1.474,1.206,2.906,1.795,4.393,1.164,2.95,2.377,5.841,3.587,8.791.61,1.487,1.187,2.931,1.792,4.4a4.913,4.913,0,0,1,.649,2.485,2.072,2.072,0,0,1-1.506,1.55c-2.18.626-2.6-1.351-3.178-2.857-.527-1.37-1.088-3.12-1.684-4.375l-9.415.007Zm22.769-2.284c-.083,1.765-.011,3.707-.011,5.49,0,1.827.275,3.635-1.5,4.037a2.324,2.324,0,0,1-2.1-.554,3.321,3.321,0,0,1-.49-2.245V594.1c0-1.495-.34-4.017.57-4.927.972-.972,3.344-.621,4.927-.621,3.181,0,7.419-.275,10.077.989,2.21,1.051,3.86,3.964,3.573,7.38-.471,5.569-4.971,6.888-9.555,7.022-1.739.051-3.832-.143-5.488,0Zm19.642-15.32a1.932,1.932,0,0,0-1.61,2.049c-.092,3.139,0,7.618,0,10.858,0,1.171-.129,10.02.129,10.75a2.059,2.059,0,0,0,2.421,1.206,1.925,1.925,0,0,0,1.568-2.046c.079-3.3,0-7.5,0-10.86,0-1.171.127-9.994-.12-10.731a2.034,2.034,0,0,0-2.388-1.224Zm-38.785-9.971a22.2,22.2,0,0,1,12.5,2.825c1.628.959,4.338,2.275,2.709,4.063-1.282,1.407-2.333-.263-5.1-1.67a19.231,19.231,0,1,0-4.1,35.884c5.19-1.25,6.876-3.7,8.052-3.707a1.68,1.68,0,0,1,1.55,2.176c-.328.952-3.5,2.7-4.529,3.18-10.008,4.714-20.94,1.434-27.442-6.684a22.464,22.464,0,0,1,16.36-36.067Z" transform="translate(-244.158 -565.053)" fill="#fff" fill-rule="evenodd"/>
</svg>
