<svg xmlns="http://www.w3.org/2000/svg" width="71.435" height="80" viewBox="0 0 71.435 80">
  <path id="Path_1701" data-name="Path 1701" d="M240.647,581.556h12.982a5.9,5.9,0,0,1,4.178,1.735,6,6,0,0,1,1.606,2.965c3.4-2.124,8.175-5.486,9.531-8.358a63.572,63.572,0,0,0,3.816-12.615,2.532,2.532,0,0,1,2.529-2.1c1.373-.055,11-.164,12.15,7.677.686,4.7-1.037,12.255-2.119,16.326h14.8a2.587,2.587,0,0,1,.579.067c1.17.229,4.71,1.323,4.71,6.194a6.561,6.561,0,0,1-1.513,4.319c3.854,4.564,2.057,8.2.176,10.279,5.127,6.335-.6,10.844-1.983,11.8a2.574,2.574,0,0,1-.541.336c1.027,4.955-4.54,8.3-4.557,8.318l0-.01a2.521,2.521,0,0,1-1.313.374l-26.441.15a2.527,2.527,0,0,1-.86-.15l-9.09-3.27a5.972,5.972,0,0,1-1.471,2.431l-.009.01a5.906,5.906,0,0,1-4.169,1.735H240.647a5.9,5.9,0,0,1-4.166-1.735l-.01-.01a5.9,5.9,0,0,1-1.735-4.166V587.469a5.941,5.941,0,0,1,5.911-5.913Zm39.43,5.634c.9-3.146,3-11.2,2.355-15.594-.355-2.436-3.175-3.125-5.139-3.308a62.761,62.761,0,0,1-3.775,11.767c-2.312,4.9-10.692,10.112-13.976,12.014v28.262l10.11,3.637,25.183-.141c.739-.6,1.964-1.878,1.3-3.411H289.92a2.533,2.533,0,1,1,0-5.067h9.746c.794-.729,2.052-2.481-.338-5H289.92a2.534,2.534,0,1,1,0-5.067h9.748c.777-.71,1.995-2.393-.169-4.81a13.2,13.2,0,0,1-3.627.5c-3.842,0-5.877.057-5.9.057a2.523,2.523,0,1,1-.1-5.046c.033,0,3.06-.079,6-.079a6.527,6.527,0,0,0,3.651-.934,1.813,1.813,0,0,0,.815-1.523c0-.956-.288-1.153-.393-1.194H273.859a2.533,2.533,0,1,1,0-5.067Zm-32.938,27.118a2.644,2.644,0,1,0,2.643,2.643,2.645,2.645,0,0,0-2.643-2.643ZM293.5,556.25l-3.134,3.134a2.533,2.533,0,0,0,3.582,3.582l3.134-3.134a2.533,2.533,0,1,0-3.582-3.582Zm-29.947,4.178,3.132,3.134a2.533,2.533,0,0,0,3.582-3.582l-3.132-3.134a2.533,2.533,0,0,0-3.582,3.582Zm14.229-8.12a2.534,2.534,0,0,1,5.067,0v4.433a2.534,2.534,0,0,1-5.067,0v-4.433Zm-24.153,34.316H240.647a.844.844,0,0,0-.593.25h-.01a.841.841,0,0,0-.241.6v36.394a.835.835,0,0,0,.241.593l.01.01a.835.835,0,0,0,.593.241h12.982a.841.841,0,0,0,.6-.241l.01-.01a.835.835,0,0,0,.241-.593V587.469a.841.841,0,0,0-.241-.6h-.01A.85.85,0,0,0,253.629,586.623Z" transform="translate(-234.736 -549.774)" fill="#fff" fill-rule="evenodd"/>
</svg>
