<svg xmlns="http://www.w3.org/2000/svg" width="82.894" height="75" viewBox="0 0 82.894 75">
  <path id="Path_1699" data-name="Path 1699" d="M311.249,482.256V445.691a2.409,2.409,0,0,0-2.44-2.363h-65.34a2.407,2.407,0,0,0-2.438,2.363V485.17a7.505,7.505,0,0,0-3.345,1.338,7,7,0,0,0-1.279,10.167l10.984,12.9c6.8,7.709,14.023,8.653,24.761,8.653a82.576,82.576,0,0,0,21.365-1.734l7.821-1.811a6.9,6.9,0,0,0,5.544,2.825h3.85a7.021,7.021,0,0,0,6.941-7.082V489.32a7.028,7.028,0,0,0-6.424-7.064Zm-10.97,4.859-3.248-1.605a19.874,19.874,0,0,0-16.948-.268,23.826,23.826,0,0,1-6.384,2.392H262.431a6.689,6.689,0,0,0-6.783,6.569v1.723l-.064-.061-8.051-8.466a7.373,7.373,0,0,0-1.621-1.284V462.679H265.87v8.658a2.407,2.407,0,0,0,2.438,2.363h15.388a2.412,2.412,0,0,0,2.438-2.363v-8.658h20.239v19.567a6.974,6.974,0,0,0-6.085,4.859l-.008.011Zm-29.542-24.426h10.51v6.3h-10.51v-6.3Zm35.626-4.725H286.124v-9.9h20.239v9.9Zm-25.116-9.9v9.9h-10.51v-9.9Zm-15.388,0v9.9H245.9v-9.9Zm26.516,63.852a80.036,80.036,0,0,1-20.142,1.579c-10.079,0-14.952-.158-21.084-6.909l-10.984-12.9c-1.91-2.408,1.549-5.255,3.773-3.069l8.051,8.466a11.243,11.243,0,0,0,8.107,3.441h22.323a2.363,2.363,0,1,0,0-4.725H260.532v-3.577a1.873,1.873,0,0,1,1.905-1.846h11.275a22.842,22.842,0,0,0,8.442-2.833,14.879,14.879,0,0,1,12.685.2l5.11,2.512v17.914l-7.575,1.75Zm20.415-1.474a2.232,2.232,0,0,1-2.063,2.36h-3.853a2.23,2.23,0,0,1-2.063-2.36V489.32a2.228,2.228,0,0,1,2.063-2.357h3.853a2.23,2.23,0,0,1,2.063,2.357Z" transform="translate(-234.779 -443.328)" fill="#fff" fill-rule="evenodd"/>
</svg>
