<svg xmlns="http://www.w3.org/2000/svg" width="74.211" height="72.02" viewBox="0 0 74.211 72.02">
  <path id="Path_1677" data-name="Path 1677" d="M382.834,600.895v37.641H311.061V595.754c-2.212-3.98-.912-12.235,0-16.589V566.61c24.1-.125,47.674-.125,71.773,0v12.555c.914,4.354,2.212,12.609,0,16.589v5.14ZM316,571.5v3.957h61.9V571.5Zm30.952,25.313c-.1.107-.193.213-.295.313a7.626,7.626,0,0,1-10.81,0,7.909,7.909,0,0,1-.6-.676,7.846,7.846,0,0,1-.6.676,7.626,7.626,0,0,1-10.81,0c-.151-.151-.3-.309-.436-.474a5.823,5.823,0,0,1-1.409,1.07,8.506,8.506,0,0,1-4.115.961,12.051,12.051,0,0,1-1.878-.151V633.6h38.8V603.789h18.954V633.6H377.9V598.532a12.05,12.05,0,0,1-1.878.151,8.512,8.512,0,0,1-4.115-.961,5.822,5.822,0,0,1-1.409-1.07c-.139.165-.283.323-.436.474a7.623,7.623,0,0,1-10.808,0,7.5,7.5,0,0,1-.6-.676,7.883,7.883,0,0,1-.6.676,7.626,7.626,0,0,1-10.81,0c-.1-.1-.2-.207-.295-.313Zm30.953-1.618s5.361-4.259,0-16.45H372.31c0,2.486-.411,13.185.1,14.853a2.172,2.172,0,0,0,1.082,1.246,5.291,5.291,0,0,0,2.534.55,9.249,9.249,0,0,0,1.878-.2Zm-29.613-16.45v12.978a4.361,4.361,0,0,0,8.722,0V578.745Zm12.01,0v12.978a4.361,4.361,0,0,0,8.722,0V578.745ZM316,595.195a9.267,9.267,0,0,0,1.878.2,5.3,5.3,0,0,0,2.537-.55,2.175,2.175,0,0,0,1.079-1.246c.508-1.669.1-12.368.1-14.853H316c-5.361,12.191,0,16.45,0,16.45Zm29.613-16.45h-8.722v12.978a4.361,4.361,0,0,0,8.722,0V578.745Zm-12.01,0h-8.722v12.978a4.361,4.361,0,0,0,8.722,0V578.745Zm-10.244,28.332v18.991h23.862V607.077Zm-3.291,20.636v1.643h30.444V603.789H320.064v23.925Zm50.4,5.888V607.077H358.088V633.6Z" transform="translate(-309.843 -566.516)" fill="#fff" fill-rule="evenodd"/>
</svg>
