<svg xmlns="http://www.w3.org/2000/svg" width="24" height="24" viewBox="0 0 24 24">
  <path id="reklam-paketi" d="M12.461,9.641l.082.106.325.514,0,0,.561.883,5.4,8.508a.75.75,0,0,1-1.183.912l-.082-.108-.023-.033-5.19,1.624A3.011,3.011,0,0,1,11.266,25.5l-.138.09a2.789,2.789,0,0,1-3.691-.714l-.132-.2-.567-.87-1.581.5a.75.75,0,0,1-1.3.585l-.082-.108-.324-.507-.012-.015-.993-1.567-.006-.007-.325-.513a.75.75,0,0,1,.954-1.08l8.25-10.47-.045-.07a.75.75,0,0,1,1.185-.91Zm3.3-7.383.159.114,2.062,1.663,2.646-.13A1.678,1.678,0,0,1,22.271,4.97l.057.172L23.019,7.7l2.22,1.449a1.679,1.679,0,0,1,.709,1.815l-.06.187-.943,2.475L25.89,16.1a1.68,1.68,0,0,1-.495,1.887l-.157.115-2.218,1.444-.694,2.557A1.679,1.679,0,0,1,20.8,23.348h-.18l-2.647-.132-2.062,1.662a.751.751,0,0,1-.96-.015l-.094-.1a.75.75,0,0,1,.015-.96l.1-.094,2.286-1.84a.751.751,0,0,1,.372-.159l.135-.006,2.934.145a.176.176,0,0,0,.154-.075l.026-.057.771-2.835a.739.739,0,0,1,.207-.346l.108-.085,2.457-1.6A.179.179,0,0,0,24.5,16.7l-.012-.06L23.442,13.9a.766.766,0,0,1-.036-.4l.036-.132,1.045-2.745a.176.176,0,0,0-.024-.169l-.045-.042L21.96,8.8a.74.74,0,0,1-.265-.3l-.048-.129L20.88,5.534a.18.18,0,0,0-.12-.123L20.7,5.4l-2.932.145a.735.735,0,0,1-.394-.09l-.114-.075L14.973,3.539a.182.182,0,0,0-.171-.03l-.052.03L12.464,5.384a.75.75,0,0,1-.372.159l-.136.006L9.023,5.4a.186.186,0,0,0-.154.076l-.026.056L8.077,8.366a.742.742,0,0,1-.207.345L7.762,8.8,5.3,10.4a.179.179,0,0,0-.081.153l.012.06,1.045,2.743a.751.751,0,0,1,.036.4l-.036.132-.448,1.174a.75.75,0,0,1-1.438-.4l.037-.13.345-.907-.945-2.478a1.683,1.683,0,0,1,.495-1.885l.157-.115L6.7,7.7,7.4,5.138A1.679,1.679,0,0,1,8.918,3.9H9.1l2.646.133,2.064-1.665a1.68,1.68,0,0,1,1.948-.112ZM10.925,22.5l-2.7.844.349.534a1.29,1.29,0,0,0,1.618.511l.208-.115a1.506,1.506,0,0,0,.525-1.774ZM12.17,11.963,4,22.337l.334.525.067.108L16.71,19.115l-4.54-7.15Z" transform="translate(-2 -2)" fill="#23252e"/>
</svg>
