<svg xmlns="http://www.w3.org/2000/svg" width="24" height="24" viewBox="0 0 24 24">
  <path id="sattiklarim" d="M23.75,2A2.251,2.251,0,0,1,26,4.25v19.5A2.251,2.251,0,0,1,23.75,26H4.25A2.251,2.251,0,0,1,2,23.75V4.25A2.251,2.251,0,0,1,4.25,2Zm0,1.5H4.25a.75.75,0,0,0-.75.75v19.5a.75.75,0,0,0,.75.75h19.5a.75.75,0,0,0,.75-.75V4.25A.75.75,0,0,0,23.75,3.5Zm-3,16.5a.776.776,0,0,1,.75.8.788.788,0,0,1-.615.788l-.135.013H7.25a.778.778,0,0,1-.75-.8.786.786,0,0,1,.615-.786L7.25,20ZM10.3,7.25a.8.8,0,0,1,.75.489l1.98,1.98a.75.75,0,0,1-.955,1.148l-.1-.085-.87-.873V16.25a.775.775,0,0,1-.8.75.786.786,0,0,1-.786-.615L9.5,16.25V9.809l-.969.972a.751.751,0,0,1-.957.086l-.105-.086a.751.751,0,0,1-.086-.957l.086-.105,2.25-2.25a.756.756,0,0,1,.564-.219Zm7.5,0a.8.8,0,0,1,.75.489l1.98,1.98a.75.75,0,0,1-.955,1.148l-.1-.085-.87-.873V16.25a.775.775,0,0,1-.8.75.786.786,0,0,1-.786-.615L17,16.25V9.809l-.969.972a.751.751,0,0,1-.957.086l-.1-.086a.751.751,0,0,1-.086-.957l.086-.105,2.25-2.25a.756.756,0,0,1,.564-.219Z" transform="translate(-2 -2)" fill="#23252e"/>
</svg>
