<svg xmlns="http://www.w3.org/2000/svg" width="24.001" height="24" viewBox="0 0 24.001 24">
  <path id="siparislerim" d="M21.591,22.161a2.249,2.249,0,1,1-3.18,0A2.247,2.247,0,0,1,21.591,22.161Zm-14.25,0a2.249,2.249,0,1,1-3.18,0A2.247,2.247,0,0,1,7.34,22.161ZM19.47,23.22a.751.751,0,1,0,1.148.105l-.087-.105-.1-.086A.751.751,0,0,0,19.47,23.22Zm-14.25,0a.751.751,0,1,0,1.148.105L6.28,23.22l-.1-.086a.751.751,0,0,0-.957.086ZM25.251,2a.75.75,0,0,1,.135,1.488l-.135.012H23.568a.751.751,0,0,0-.719.533l-.026.12-1.91,14.639a2.252,2.252,0,0,1-2.021,1.95l-.21.009H2.75a.75.75,0,0,1-.135-1.488l.135-.012H18.684a.749.749,0,0,0,.717-.533l.027-.12L21.336,3.959a2.253,2.253,0,0,1,2.022-1.95L23.568,2h1.683ZM15.5,5a2.251,2.251,0,0,1,2.25,2.25V15.5a2.251,2.251,0,0,1-2.25,2.25h-9A2.251,2.251,0,0,1,4.25,15.5V7.25A2.251,2.251,0,0,1,6.5,5Zm0,1.5H13.249v3.75a.751.751,0,0,1-.615.738L12.5,11h-3a.75.75,0,0,1-.75-.75V6.5H6.5a.751.751,0,0,0-.738.615L5.75,7.25V15.5a.75.75,0,0,0,.75.75h9a.75.75,0,0,0,.75-.75V7.25A.75.75,0,0,0,15.5,6.5Zm-3.75,0h-1.5v3h1.5Z" transform="translate(-2 -2)" fill="#23252e"/>
</svg>
