<svg xmlns="http://www.w3.org/2000/svg" width="24" height="24" viewBox="0 0 24 24">
  <path id="urun-yonetimi" d="M17.655,18.624a.75.75,0,0,1,.969-.969l6.894,2.652a.749.749,0,0,1,.117,1.342l-1.828,1.1,1.974,1.972a.75.75,0,0,1-.957,1.147l-.1-.085-1.972-1.974-1.095,1.83a.753.753,0,0,1-1.2.114l-.078-.1-.062-.127Zm2.005,1.036,1.494,3.883.8-1.332a.752.752,0,0,1,.157-.186l.1-.072,1.332-.8-3.883-1.494ZM19.25,2a2.253,2.253,0,0,1,2.122,1.5H23.75a2.25,2.25,0,0,1,2.239,2.034L26,5.75v12a.75.75,0,0,1-1.488.135L24.5,17.75v-12a.751.751,0,0,0-.615-.738L23.75,5H21.5V15.455a.75.75,0,0,1-1.488.135L20,15.455V4.25a.751.751,0,0,0-.615-.738L19.25,3.5H8.75a.751.751,0,0,0-.738.615L8,4.25v15a.751.751,0,0,0,.615.738L8.75,20h7.327a.75.75,0,0,1,.135,1.488l-.135.012H8.75A2.249,2.249,0,0,1,6.629,20H4.25A2.25,2.25,0,0,1,2.01,17.966L2,17.75v-12A2.25,2.25,0,0,1,4.034,3.51L4.25,3.5H6.627a2.249,2.249,0,0,1,1.9-1.489L8.75,2ZM6.5,5H4.25a.751.751,0,0,0-.738.615L3.5,5.75v12a.751.751,0,0,0,.615.738l.135.012H6.5Zm6.75,8.25a.75.75,0,0,1,.135,1.488l-.135.012h-3a.75.75,0,0,1-.135-1.488l.135-.012Zm4.5-3.75a.75.75,0,0,1,.135,1.488L17.75,11h-7.5a.75.75,0,0,1-.135-1.488L10.25,9.5Zm0-3.75a.75.75,0,0,1,.135,1.488l-.135.012h-7.5a.75.75,0,0,1-.135-1.488l.135-.012Z" transform="translate(-2 -2)" fill="#23252e"/>
</svg>
