<svg width="237" height="111" viewBox="0 0 237 111" fill="none" xmlns="http://www.w3.org/2000/svg">
<path d="M19.8877 1.03683C19.3557 0.068785 18.1397 -0.284743 17.1717 0.247202L1.39652 8.91575C0.428475 9.44769 0.0749483 10.6637 0.606893 11.6317C1.13884 12.5998 2.35482 12.9533 3.32286 12.4213L17.3452 4.71597L25.0506 18.7384C25.5826 19.7064 26.7985 20.0599 27.7666 19.528C28.7346 18.996 29.0882 17.7801 28.5562 16.812L19.8877 1.03683ZM121.156 62.4071L120.422 60.5469L121.156 62.4071ZM235.616 86.1132C236.641 85.7023 237.139 84.5381 236.728 83.5128C236.318 82.4874 235.153 81.9893 234.128 82.4001L235.616 86.1132ZM15.0511 6.19814C14.8356 7.28149 15.5392 8.33439 16.6225 8.54986C17.7059 8.76533 18.7588 8.06178 18.9743 6.97843L15.0511 6.19814ZM18.0064 15.998C18.0241 14.8936 17.1432 13.9839 16.0387 13.9662C14.9343 13.9484 14.0246 14.8293 14.0069 15.9338L18.0064 15.998ZM14.7573 25.7019C14.9442 26.7906 15.9782 27.5216 17.0669 27.3347C18.1555 27.1479 18.8866 26.1139 18.6997 25.0252L14.7573 25.7019ZM21.0605 33.7639C20.6738 32.7293 19.5216 32.2039 18.4869 32.5906C17.4522 32.9772 16.9269 34.1294 17.3135 35.1641L21.0605 33.7639ZM21.5797 43.9829C22.1504 44.9287 23.3796 45.2328 24.3254 44.6621C25.2711 44.0915 25.5752 42.8622 25.0046 41.9165L21.5797 43.9829ZM30.3745 49.2289C29.6439 48.4005 28.3801 48.3212 27.5517 49.0519C26.7232 49.7825 26.644 51.0463 27.3746 51.8747L30.3745 49.2289ZM34.4453 58.6151C35.3067 59.3066 36.5655 59.1688 37.2569 58.3074C37.9484 57.4461 37.8106 56.1873 36.9493 55.4958L34.4453 58.6151ZM44.4904 60.5968C43.5291 60.0528 42.3088 60.3911 41.7648 61.3524C41.2208 62.3137 41.5591 63.534 42.5204 64.078L44.4904 60.5968ZM51.3267 68.2144C52.3584 68.609 53.5146 68.0925 53.9092 67.0608C54.3038 66.0292 53.7873 64.8729 52.7556 64.4784L51.3267 68.2144ZM61.5161 67.1474C60.4402 66.8973 59.3652 67.5667 59.1151 68.6426C58.865 69.7185 59.5344 70.7934 60.6103 71.0435L61.5161 67.1474ZM70.1586 72.6378C71.2571 72.7532 72.2411 71.9561 72.3564 70.8576C72.4717 69.759 71.6747 68.775 70.5762 68.6597L70.1586 72.6378ZM79.7849 69.1013C78.6803 69.1086 77.7909 70.01 77.7982 71.1145C77.8055 72.2191 78.7069 73.1086 79.8114 73.1012L79.7849 69.1013ZM89.4363 72.5498C90.5346 72.433 91.3303 71.4479 91.2135 70.3495C91.0967 69.2511 90.1116 68.4554 89.0132 68.5722L89.4363 72.5498ZM98.1514 67.1819C97.0676 67.3952 96.3619 68.4466 96.5751 69.5304C96.7884 70.6142 97.8398 71.3199 98.9236 71.1067L98.1514 67.1819ZM108.279 68.8712C109.343 68.5731 109.963 67.4692 109.665 66.4056C109.367 65.3421 108.263 64.7216 107.199 65.0197L108.279 68.8712ZM116.035 62.1981C114.995 62.5702 114.453 63.7149 114.825 64.7549C115.198 65.7949 116.342 66.3364 117.382 65.9644L116.035 62.1981ZM126.784 62.1969C127.789 61.7382 128.232 60.5518 127.773 59.5469C127.314 58.5421 126.128 58.0994 125.123 58.5581L126.784 62.1969ZM133.466 53.6494C132.634 54.3768 132.55 55.6403 133.277 56.4716C134.005 57.3029 135.268 57.3872 136.099 56.6599L133.466 53.6494ZM135.569 45.1934C134.642 44.5924 133.404 44.8565 132.803 45.7832C132.202 46.71 132.466 47.9485 133.393 48.5495L135.569 45.1934ZM124.391 45.165C125.463 45.4304 126.547 44.7763 126.813 43.7041C127.078 42.6319 126.424 41.5476 125.352 41.2821L124.391 45.165ZM115.011 39.345C113.917 39.1925 112.907 39.9557 112.754 41.0497C112.602 42.1437 113.365 43.1542 114.459 43.3067L115.011 39.345ZM104.349 42.2838C105.451 42.3523 106.4 41.5141 106.469 40.4117C106.537 39.3092 105.699 38.36 104.597 38.2915L104.349 42.2838ZM93.9971 38.3339C92.8967 38.4303 92.0828 39.4004 92.1792 40.5008C92.2755 41.6011 93.2457 42.4151 94.346 42.3187L93.9971 38.3339ZM84.704 44.1633C85.7589 43.8358 86.3485 42.7151 86.021 41.6602C85.6934 40.6053 84.5727 40.0157 83.5179 40.3432L84.704 44.1633ZM73.7563 44.8875C72.8338 45.495 72.5784 46.7353 73.1859 47.6578C73.7934 48.5803 75.0337 48.8357 75.9562 48.2282L73.7563 44.8875ZM69.0618 54.7116C69.713 53.8195 69.5178 52.5683 68.6256 51.917C67.7335 51.2657 66.4823 51.461 65.831 52.3532L69.0618 54.7116ZM61.2803 62.3688C61.0413 63.4472 61.7218 64.5152 62.8002 64.7542C63.8786 64.9931 64.9465 64.3127 65.1855 63.2343L61.2803 62.3688ZM65.077 72.6129C64.8708 71.5277 63.824 70.8152 62.7388 71.0214C61.6537 71.2276 60.9412 72.2744 61.1474 73.3596L65.077 72.6129ZM65.0454 83.5157C65.6073 84.4666 66.8338 84.782 67.7847 84.22C68.7356 83.6581 69.051 82.4316 68.489 81.4807L65.0454 83.5157ZM74.5408 89.0208C73.7434 88.2565 72.4774 88.2832 71.713 89.0806C70.9486 89.878 70.9754 91.1441 71.7728 91.9084L74.5408 89.0208ZM80.252 98.4138C81.1917 98.9944 82.4241 98.7033 83.0047 97.7636C83.5853 96.8239 83.2942 95.5915 82.3545 95.0109L80.252 98.4138ZM91.1429 99.4651C90.1219 99.0436 88.9526 99.5295 88.531 100.551C88.1095 101.571 88.5954 102.741 89.6164 103.162L91.1429 99.4651ZM99.6271 106.53C100.694 106.816 101.791 106.183 102.077 105.116C102.363 104.049 101.731 102.953 100.664 102.666L99.6271 106.53ZM110.439 104.737C109.348 104.562 108.323 105.305 108.148 106.395C107.973 107.486 108.715 108.512 109.806 108.687L110.439 104.737ZM120.128 109.879C121.229 109.96 122.188 109.133 122.269 108.031C122.351 106.93 121.524 105.971 120.422 105.89L120.128 109.879ZM130.51 106.262C129.405 106.259 128.508 107.153 128.505 108.257C128.503 109.362 129.397 110.259 130.501 110.262L130.51 106.262ZM140.868 109.959C141.97 109.894 142.811 108.947 142.746 107.845C142.681 106.742 141.735 105.901 140.632 105.966L140.868 109.959ZM150.757 105.093C149.66 105.216 148.87 106.206 148.993 107.304C149.116 108.401 150.106 109.191 151.203 109.068L150.757 105.093ZM161.509 107.664C162.6 107.491 163.344 106.465 163.17 105.375C162.996 104.284 161.971 103.541 160.88 103.714L161.509 107.664ZM170.826 101.919C169.743 102.136 169.042 103.191 169.26 104.274C169.478 105.356 170.532 106.058 171.615 105.84L170.826 101.919ZM181.64 103.632C182.715 103.376 183.378 102.297 183.121 101.222C182.865 100.148 181.786 99.485 180.711 99.7416L181.64 103.632ZM190.606 97.204C189.541 97.4956 188.913 98.5956 189.205 99.661C189.496 100.726 190.596 101.354 191.662 101.062L190.606 97.204ZM201.613 98.178C202.669 97.8552 203.264 96.7371 202.941 95.6808C202.618 94.6245 201.5 94.0299 200.444 94.3528L201.613 98.178ZM210.059 91.2716C209.012 91.6224 208.447 92.7558 208.798 93.8032C209.148 94.8506 210.282 95.4153 211.329 95.0646L210.059 91.2716ZM221.124 91.6475C222.162 91.271 222.699 90.1239 222.322 89.0855C221.946 88.0471 220.799 87.5105 219.761 87.887L221.124 91.6475ZM229.262 84.3196C228.232 84.7193 227.721 85.8781 228.121 86.9078C228.52 87.9375 229.679 88.4483 230.709 88.0486L229.262 84.3196ZM16.2144 1.44165C15.7539 3.02553 15.3666 4.61215 15.0511 6.19814L18.9743 6.97843C19.267 5.50636 19.6269 4.03198 20.0554 2.55835L16.2144 1.44165ZM14.0069 15.9338C13.9538 19.2364 14.2082 22.503 14.7573 25.7019L18.6997 25.0252C18.1926 22.0711 17.9573 19.0525 18.0064 15.998L14.0069 15.9338ZM17.3135 35.1641C18.4546 38.2177 19.8813 41.168 21.5797 43.9829L25.0046 41.9165C23.4331 39.3119 22.1145 36.5845 21.0605 33.7639L17.3135 35.1641ZM27.3746 51.8747C29.5002 54.2849 31.8614 56.5409 34.4453 58.6151L36.9493 55.4958C34.542 53.5634 32.3471 51.4656 30.3745 49.2289L27.3746 51.8747ZM42.5204 64.078C45.282 65.6407 48.2207 67.0265 51.3267 68.2144L52.7556 64.4784C49.833 63.3605 47.0753 62.0595 44.4904 60.5968L42.5204 64.078ZM60.6103 71.0435C63.6694 71.7547 66.8546 72.291 70.1586 72.6378L70.5762 68.6597C67.4326 68.3297 64.4107 67.8203 61.5161 67.1474L60.6103 71.0435ZM79.8114 73.1012C82.9333 73.0805 86.1432 72.9001 89.4363 72.5498L89.0132 68.5722C85.8483 68.9089 82.7708 69.0815 79.7849 69.1013L79.8114 73.1012ZM98.9236 71.1067C101.981 70.5051 105.101 69.7623 108.279 68.8712L107.199 65.0197C104.12 65.8831 101.103 66.6012 98.1514 67.1819L98.9236 71.1067ZM117.382 65.9644C118.874 65.4308 120.377 64.8653 121.891 64.2673L120.422 60.5469C118.947 61.1292 117.485 61.6794 116.035 62.1981L117.382 65.9644ZM121.891 64.2673C123.679 63.5612 125.307 62.8713 126.784 62.1969L125.123 58.5581C123.717 59.1998 122.154 59.8627 120.422 60.5469L121.891 64.2673ZM136.099 56.6599C138.218 54.8062 139.563 52.6908 139.323 50.3513C139.087 48.0602 137.406 46.3848 135.569 45.1934L133.393 48.5495C134.892 49.522 135.296 50.2967 135.344 50.7604C135.386 51.1758 135.214 52.1201 133.466 53.6494L136.099 56.6599ZM125.352 41.2821C122.076 40.4711 118.499 39.8311 115.011 39.345L114.459 43.3067C117.852 43.7796 121.285 44.3962 124.391 45.165L125.352 41.2821ZM104.597 38.2915C102.595 38.1671 100.798 38.1059 99.3314 38.1059V42.1059C100.696 42.1059 102.407 42.1631 104.349 42.2838L104.597 38.2915ZM99.3314 38.1059C97.4948 38.1059 95.7163 38.1834 93.9971 38.3339L94.346 42.3187C95.9453 42.1787 97.6073 42.1059 99.3314 42.1059V38.1059ZM83.5179 40.3432C79.8565 41.48 76.5934 43.0192 73.7563 44.8875L75.9562 48.2282C78.4586 46.5803 81.3766 45.1964 84.704 44.1633L83.5179 40.3432ZM65.831 52.3532C63.6031 55.4051 62.072 58.7966 61.2803 62.3688L65.1855 63.2343C65.856 60.209 67.1544 57.3245 69.0618 54.7116L65.831 52.3532ZM61.1474 73.3596C61.7998 76.7928 63.0964 80.2177 65.0454 83.5157L68.489 81.4807C66.7626 78.5592 65.6386 75.5678 65.077 72.6129L61.1474 73.3596ZM71.7728 91.9084C74.1978 94.233 77.0224 96.4184 80.252 98.4138L82.3545 95.0109C79.3484 93.1536 76.7497 91.1382 74.5408 89.0208L71.7728 91.9084ZM89.6164 103.162C92.6995 104.435 96.035 105.566 99.6271 106.53L100.664 102.666C97.2289 101.745 94.0576 100.669 91.1429 99.4651L89.6164 103.162ZM109.806 108.687C113.076 109.211 116.515 109.612 120.128 109.879L120.422 105.89C116.918 105.631 113.591 105.242 110.439 104.737L109.806 108.687ZM130.501 110.262C133.83 110.269 137.285 110.17 140.868 109.959L140.632 105.966C137.128 106.173 133.754 106.268 130.51 106.262L130.501 110.262ZM151.203 109.068C154.54 108.694 157.975 108.228 161.509 107.664L160.88 103.714C157.404 104.268 154.03 104.726 150.757 105.093L151.203 109.068ZM171.615 105.84C174.879 105.184 178.22 104.449 181.64 103.632L180.711 99.7416C177.337 100.548 174.042 101.272 170.826 101.919L171.615 105.84ZM191.662 101.062C194.913 100.173 198.23 99.2122 201.613 98.178L200.444 94.3528C197.097 95.3756 193.818 96.3251 190.606 97.204L191.662 101.062ZM211.329 95.0646C214.538 93.99 217.803 92.8516 221.124 91.6475L219.761 87.887C216.47 89.0802 213.236 90.2077 210.059 91.2716L211.329 95.0646ZM230.709 88.0486C232.332 87.4187 233.967 86.7737 235.616 86.1132L234.128 82.4001C232.493 83.0553 230.871 83.6951 229.262 84.3196L230.709 88.0486Z" fill="#FFD8C1"/>
</svg>
