<svg width="60" height="60" viewBox="0 0 60 60" fill="none" xmlns="http://www.w3.org/2000/svg">
<path d="M30 0.833374C13.9175 0.833374 0.833344 13.9175 0.833344 30V42.0838C0.833344 45.0705 3.44959 47.5 6.66668 47.5H9.58334C10.3569 47.5 11.0988 47.1927 11.6457 46.6458C12.1927 46.0988 12.5 45.3569 12.5 44.5834V29.583C12.5 28.8094 12.1927 28.0675 11.6457 27.5206C11.0988 26.9736 10.3569 26.6663 9.58334 26.6663H6.93501C8.55668 15.3788 18.2692 6.66671 30 6.66671C41.7308 6.66671 51.4433 15.3788 53.065 26.6663H50.4167C49.6431 26.6663 48.9013 26.9736 48.3543 27.5206C47.8073 28.0675 47.5 28.8094 47.5 29.583V47.5C47.5 50.7171 44.8838 53.3334 41.6667 53.3334H35.8333V50.4167H24.1667V59.1667H41.6667C48.1008 59.1667 53.3333 53.9342 53.3333 47.5C56.5504 47.5 59.1667 45.0705 59.1667 42.0838V30C59.1667 13.9175 46.0825 0.833374 30 0.833374Z" fill="#F15C05"/>
</svg>
